<svg id="Layer_1" data-name="readers-digest" xmlns="http://www.w3.org/2000/svg" version="1.1" xmlns:xlink="http://www.w3.org/1999/xlink"><title>Readers Digest</title><defs><style>.readers-digest--st0{fill:#666;fill-rule:evenodd}</style></defs><path class="readers-digest--st0" d="M192.93 22.3a6.77 6.77 0 00-6.88-7c-2.68 0-5.48 1.55-5.07 5.21.27 2.37 4 3.22 6 3.86 5.94 1.86 8.32 4.13 8.32 8.54s-3.67 7.5-10.2 7.5c-3.21 0-6.76-.64-8.92-2.6l-.77-6.39h.62c.94 5.69 3.41 7.92 9.3 8.07 3.78.1 4.89-2.05 4.87-4.71s-2.85-3.78-6.2-4.87c-4.84-1.55-7.83-3.41-7.83-8s4.1-7.63 10.16-7.63a15.87 15.87 0 017.16 2v6.02z"></path><path class="readers-digest--st0" d="M171.76 16.66a23.41 23.41 0 003-2.4 5.12 5.12 0 001.81-3.42 1.27 1.27 0 00-.21-.74.83.83 0 00-.68-.28 9.29 9.29 0 01-.95.11 3.16 3.16 0 01-2.36-1 3.42 3.42 0 01-.93-2.48 3.71 3.71 0 011-2.7 3.53 3.53 0 012.7-1 4.17 4.17 0 013.18 1.37 5.19 5.19 0 011.28 3.27 9.1 9.1 0 01-2.78 6.42 19.75 19.75 0 01-4.69 3.48l-.39-.62z"></path><path class="readers-digest--st0" d="M116.61 52.22v8.28c0 2.5 1.12 3.28 2.2 3.28a5.87 5.87 0 002.06-.47l.17.51a8 8 0 01-4 1.23c-1.18 0-4.1-.42-4.1-3.27v-9.56h-2.33v-.93h2.7l2.55-4h.77v4h4.09v.93z"></path><path class="readers-digest--st0" d="M108.41 55.22a3.66 3.66 0 00-3.72-3.76c-1.44 0-3 .84-2.74 2.81.15 1.29 2.15 1.74 3.25 2.09 3.21 1 4.5 2.22 4.5 4.61s-2 4-5.51 4a7.3 7.3 0 01-4.82-1.41L99 60.17h.33c.51 3.07 1.84 4.28 5 4.35 2 .06 2.65-1.1 2.63-2.54s-1.55-2-3.37-2.65c-2.59-.83-4.25-1.84-4.25-4.33s2.21-4.12 5.49-4.12a8.4 8.4 0 013.86 1.12v3.27z"></path><path class="readers-digest--st0" d="M166.2 14.68c-2 0-4.41 1.1-7 4.34v-4.33L150.51 16v.71s1.91-.22 2.68-.28v20.48c0 .85-.13 2-1.57 2h-1.4v.94h12.36v-.94h-1.51a1.7 1.7 0 01-1.9-2V22.54c.33-3.18 2.31-5 3.22-5 1.74 0 1.68 1.24 3.23 2a2.61 2.61 0 003.77-2.21c0-1.51-1-2.62-3.18-2.62z"></path><path class="readers-digest--st0" d="M50.36 15.57c6.79 0 6.51 9 6.51 9a1.06 1.06 0 01-1.21 1.15H45.53a1.13 1.13 0 01-1.19-1.23v-.05c.12-3 .92-8.88 6-8.91zm-4.87 11.36h16.57a13.86 13.86 0 00-.23-4.42 9.72 9.72 0 00-1.94-4.29c-1.64-2-4.46-3.6-9.27-3.6-8.7 0-13.24 5.64-13.24 13.21 0 7.89 4 12.83 13.3 12.83 6.18 0 9.41-2.9 11.06-7l-.66-.34c-2.18 4.32-4.86 6-9.14 6-6.28 0-7.59-5.92-7.66-11a.68.68 0 000-.15 1.15 1.15 0 011.22-1.24z"></path><path class="readers-digest--st0" d="M90.66 51.3c3.76 0 3.62 4.82 3.62 4.84a.59.59 0 01-.67.63H88a.63.63 0 01-.66-.68c.06-1.65.49-4.74 3.32-4.76zM88 57.59h9.18a7.61 7.61 0 00-.18-2.44 5.47 5.47 0 00-1.07-2.38c-.91-1.11-2.47-2-5.13-2-4.83 0-7.34 3.13-7.34 7.32 0 4.37 2.22 7.11 7.37 7.11 3.42 0 5.21-1.61 6.13-3.87l-.47-.18c-1.21 2.39-2.69 3.32-5.06 3.31-3.48 0-4.11-3.28-4.14-6.08v-.08a.64.64 0 01.68-.69z"></path><path class="readers-digest--st0" d="M136.55 15.57c6.79 0 6.52 9 6.52 9a1.06 1.06 0 01-1.21 1.15h-10.13a1.14 1.14 0 01-1.2-1.23v-.05c.12-3 .92-8.88 6-8.91zm-4.87 11.36h16.58a14.22 14.22 0 00-.23-4.42 9.72 9.72 0 00-1.94-4.29c-1.64-2-4.47-3.6-9.27-3.6-8.71 0-13.24 5.64-13.24 13.21 0 7.89 4 12.83 13.3 12.83 6.17 0 9.41-2.9 11.06-7l-.66-.34c-2.18 4.32-4.86 6-9.14 6-6.28 0-7.6-5.92-7.66-11a.68.68 0 000-.15 1.15 1.15 0 011.21-1.24z"></path><path class="readers-digest--st0" d="M15.67 20.8h-2.54a1.33 1.33 0 01-1.44-1.49V6a18 18 0 013.18-.19c4 0 8.51 1.26 8.51 8.07 0 5.06-2.68 6.89-7.7 6.89zm6.2.85c4.68-.72 8-3.35 8-8.21 0-4.64-2.56-8.57-11.89-8.57H1.63v.86h1.78a1.65 1.65 0 011.73 1.89v29.31C5.15 39.06 3.36 39 3.36 39H1.63v.81h13.74V39h-1.66s-2 .26-2-2.07V23.58v-.06c0-.88.35-1.52 1.44-1.52H15c2.93 0 8.14 1.95 9.66 10.15 2.05 11.1 11.62 13.51 21 13.1v-.5c-18.9-1.33-9.18-21.75-23.79-23.1z"></path><path class="readers-digest--st0" d="M64.3 49.56a1.79 1.79 0 100-3.55 1.82 1.82 0 00-2 1.81 1.78 1.78 0 002 1.74z"></path><path class="readers-digest--st0" d="M66.78 64.14a.72.72 0 01-.67-.77v-12l-5.26.9.51.58.92-.1v10.6a.72.72 0 01-.67.79h-.92v.65H68v-.65z"></path><path class="readers-digest--st0" d="M81.63 33.83c0 3.4-3.59 4.68-5.37 4.49-3.19-.34-4.35-2.77-4.35-5.64 0-2.35.74-3.73 3.34-4.73 2.13-.81 5.15-1.75 6.38-2.44v8.32zM91 38a3.14 3.14 0 01-1.91.86 1.3 1.3 0 01-1.41-1.13c-.08-1.31-.11-16-.11-16 0-3-1.89-7.1-10.29-7.1-6.35 0-10.65 3-10.84 5.85A2.41 2.41 0 0069 23.29h.36l.34-.07.23-.08a3.44 3.44 0 001.82-2.52c.57-3.46 1.81-5.26 5.5-5.15 4.3.14 4.42 2.45 4.42 6.39v.53c0 .47-.29 2.16-3.18 3.32A79.54 79.54 0 0170.61 27a6 6 0 00-5.13 6.33c0 3.77 2.85 6.93 8 7.07 4.1.12 6.44-2.12 8.11-3.21a4.41 4.41 0 003.61 3.21 7.69 7.69 0 006.19-1.86L91 38z"></path><path class="readers-digest--st0" d="M112.5 32.42a5.7 5.7 0 01-.41 2.66c-1 2.44-3.32 3.15-6 3.15-5 0-6.31-5.31-6.31-11.11 0-6.43 1.47-10.9 6.77-10.9a5.84 5.84 0 015.51 3.31 7.3 7.3 0 01.44 3.2v9.69zm8.07 6.33c-1.61 0-2.12-.79-2.12-2.13V3l-9.91 1v.92l4-.25V18a7.56 7.56 0 00-5.94-3.49 13.7 13.7 0 00-10.14 3.51C94 20.24 92.51 23.58 92.51 28c0 7.28 3.85 12.38 11.31 12.38a13 13 0 008.68-3.39v2.71h8.89v-1z"></path><path class="readers-digest--st0" d="M53.84 60.67a3.23 3.23 0 01-.23 1.5C53 63.56 51.73 64 50.21 64c-2.8 0-3.57-3-3.57-6.29 0-3.64.83-6.17 3.84-6.17a3.28 3.28 0 013.11 1.87 4.14 4.14 0 01.25 1.81v5.49zm4.57 3.58c-.91 0-1.2-.45-1.2-1.2V44l-5.61.6v.52l2.24-.12v7.55a4.29 4.29 0 00-3.36-2 7.77 7.77 0 00-5.74 2 7.21 7.21 0 00-2.21 5.6c0 4.13 2.17 7 6.4 7a7.38 7.38 0 004.91-1.92v1.56h5v-.54z"></path><path class="readers-digest--st0" d="M75.53 59.39c-1.66 0-2.59-1.34-2.68-3.71S74.09 52 75.42 52c1.2 0 2.56.82 2.52 3.66 0 2.29-.73 3.7-2.44 3.71zm.18 5.49c2.78 0 4.28.63 4.19 2.67-.12 2.62-2 3.44-3.82 3.44-2.51 0-4-1.33-4.09-3.58a2.18 2.18 0 01.89-1.87c.56-.45 1.21-.66 2.86-.66zm4.4-14.09c1 0 .93.68 1.78 1.08A1.45 1.45 0 0084 50.65c0-.83-.57-1.44-1.76-1.44s-2.41.59-3.83 2.33h-.06a8.55 8.55 0 00-2.8-.5c-4.36 0-6.17 1.74-6.14 4.61a4.25 4.25 0 003.49 4.23c-1.64.21-2.95 1.18-2.95 2.3 0 1.63 2.13 2.38 3.38 2.46v.06c-1.2.11-3.82.18-4 3S72.1 72 75.41 72c5.42 0 7.53-2.38 7.53-5.5s-2.6-4.09-5.54-4.09h-2.54c-2 0-2.55-.65-2.55-1.13 0-.8.88-1.13 1.26-1.25.53.06 1.52.09 1.82.09 2.65 0 5.89-1.08 5.89-4.53a4.49 4.49 0 00-.43-1.85l-.14-.27a3.83 3.83 0 00-.33-.46c0-.07-.11-.12-.16-.19s-.3-.3-.52-.49a7.8 7.8 0 00-.77-.53c.4-.66.91-1 1.21-1z"></path></svg>